HIERARCHY
ROOT Hips
{
 OFFSET 0.000000 0.000000 0.000000
 CHANNELS 6 Xposition Yposition Zposition Yrotation Xrotation Zrotation
 JOINT Chest
 {
  OFFSET 0.000000 9.585900 0.002600
  CHANNELS 3 Yrotation Xrotation Zrotation
  JOINT Chest2
  {
   OFFSET 0.000000 9.601200 -0.005300
   CHANNELS 3 Yrotation Xrotation Zrotation
   JOINT Chest3
   {
    OFFSET 0.000000 9.561800 0.000000
    CHANNELS 3 Yrotation Xrotation Zrotation
    JOINT Chest4
    {
     OFFSET 0.000000 9.552100 0.000000
     CHANNELS 3 Yrotation Xrotation Zrotation
     JOINT Neck
     {
      OFFSET 0.000000 14.453000 0.000000
      CHANNELS 3 Yrotation Xrotation Zrotation
      JOINT Head
      {
       OFFSET 0.000000 8.936500 -0.011300
       CHANNELS 3 Yrotation Xrotation Zrotation
       End Site
       {
        OFFSET 0.000000 17.073600 -0.006000
       }
      }
     }
     JOINT RightCollar
     {
      OFFSET -2.921100 9.558500 0.000000
      CHANNELS 3 Yrotation Xrotation Zrotation
      JOINT RightShoulder
      {
       OFFSET -13.519700 0.000000 0.000000
       CHANNELS 3 Yrotation Xrotation Zrotation
       JOINT RightElbow
       {
        OFFSET 0.000000 -29.696600 0.000000
        CHANNELS 3 Yrotation Xrotation Zrotation
        JOINT RightWrist
        {
         OFFSET 0.000000 -24.004700 0.000000
         CHANNELS 3 Yrotation Xrotation Zrotation
         End Site
         {
          OFFSET 0.000000 -17.728500 0.000000
         }
        }
       }
      }
     }
     JOINT LeftCollar
     {
      OFFSET 2.921100 9.558500 0.000000
      CHANNELS 3 Yrotation Xrotation Zrotation
      JOINT LeftShoulder
      {
       OFFSET 13.519700 0.000000 0.000000
       CHANNELS 3 Yrotation Xrotation Zrotation
       JOINT LeftElbow
       {
        OFFSET 0.000000 -29.696600 0.000000
        CHANNELS 3 Yrotation Xrotation Zrotation
        JOINT LeftWrist
        {
         OFFSET 0.000000 -24.004700 0.000000
         CHANNELS 3 Yrotation Xrotation Zrotation
         End Site
         {
          OFFSET 0.000000 -17.728500 0.000000
         }
        }
       }
      }
     }
    }
   }
  }
 }
 JOINT RightHip
 {
  OFFSET -7.771700 -0.012900 -0.001300
  CHANNELS 3 Yrotation Xrotation Zrotation
  JOINT RightKnee
  {
   OFFSET 0.000000 -40.869800 0.001200
   CHANNELS 3 Yrotation Xrotation Zrotation
   JOINT RightAnkle
   {
    OFFSET 0.000000 -39.717900 0.002100
    CHANNELS 3 Yrotation Xrotation Zrotation
    JOINT RightToe
    {
     OFFSET 0.000000 -4.965400 11.033500
     CHANNELS 3 Yrotation Xrotation Zrotation
     End Site
     {
      OFFSET 0.000000 -1.423100 5.872300
     }
    }
   }
  }
 }
 JOINT LeftHip
 {
  OFFSET 7.771700 -0.012900 -0.001300
  CHANNELS 3 Yrotation Xrotation Zrotation
  JOINT LeftKnee
  {
   OFFSET 0.000000 -40.869800 0.001200
   CHANNELS 3 Yrotation Xrotation Zrotation
   JOINT LeftAnkle
   {
    OFFSET 0.000000 -39.717900 0.002100
    CHANNELS 3 Yrotation Xrotation Zrotation
    JOINT LeftToe
    {
     OFFSET 0.000000 -4.965400 11.033500
     CHANNELS 3 Yrotation Xrotation Zrotation
     End Site
     {
      OFFSET 0.000000 -1.423100 5.872300
     }
    }
   }
  }
 }
}
MOTION
Frames: 14
Frame Time: 0.008333
-53.651775 48.735013 36.101587 171.019729 -36.323835 -5.488132 5.680475 18.570553 4.859755 0.612378 2.255230 0.460392 0.997002 3.788274 0.826064 4.779646 16.068441 4.057420 -0.765409 17.501718 0.912161 -1.723608 -3.269162 1.954450 0.921738 0.172686 -3.898130 8.457473 -10.030004 -2.830772 38.993356 -70.951440 -54.138793 -0.505439 -6.299816 6.333319 -9.590795 1.569743 -1.269848 6.251867 -2.596515 -0.041887 -112.822967 -79.876856 115.272524 13.025376 -2.181571 -1.319082 7.975843 -46.825736 7.124484 -22.724732 84.708917 -10.919586 -4.033527 1.271697 -0.548888 -0.019471 -0.023573 -0.471142 -12.995578 -48.761833 18.476822 -153.303949 86.997654 -159.188294 1.439165 -8.014964 1.738945 -0.002373 -0.018698 -0.005141
-53.656518 48.720993 36.096438 170.988382 -36.285708 -5.447690 5.685747 18.573756 4.853821 0.612286 2.254572 0.462560 1.001468 3.770195 0.812866 4.783924 16.091828 4.073250 -0.754050 17.522083 0.912699 -1.704546 -3.252438 1.935185 0.912448 0.178629 -3.907380 8.474605 -10.039343 -2.838146 39.037654 -70.977143 -54.198559 -0.508252 -6.279335 6.345393 -9.599135 1.577747 -1.264526 6.270074 -2.575637 -0.035790 -113.148870 -79.997486 115.577265 13.043928 -2.271209 -1.383415 7.839743 -46.577002 7.159595 -23.355498 84.581264 -11.587565 -3.928006 0.558858 -0.613731 -0.026924 0.432092 -0.400500 -12.951615 -48.829834 18.447428 -153.763200 86.976212 -159.637249 1.426955 -8.019777 1.751631 0.002656 -0.017600 -0.009727
-53.659954 48.706792 36.091102 170.964709 -36.241531 -5.417806 5.688604 18.575708 4.853190 0.610665 2.250082 0.464506 1.002850 3.772127 0.813443 4.786866 16.096695 4.070419 -0.754564 17.501851 0.896090 -1.672925 -3.201257 1.931528 0.908002 0.158420 -3.923767 8.473045 -10.030661 -2.819669 39.043625 -71.013563 -54.212993 -0.532241 -6.276359 6.385307 -9.602108 1.588209 -1.254380 6.289319 -2.560706 -0.032514 -113.516131 -80.111639 115.920692 13.059865 -2.348648 -1.485338 7.654330 -46.368115 7.248343 -23.077320 84.499140 -11.380968 -3.890112 -0.099919 -0.733770 -0.028051 0.757626 -0.296402 -12.902336 -48.897445 18.411716 -154.109259 86.963544 -159.960388 1.428206 -8.019414 1.764149 -0.001819 -0.018613 -0.016119
-53.661532 48.695191 36.082340 170.952697 -36.217208 -5.401006 5.690147 18.576232 4.850973 0.601686 2.323707 0.499581 1.007006 3.719720 0.786968 4.788370 16.089866 4.064166 -0.752558 17.490350 0.885817 -1.649690 -3.166374 1.930553 0.905820 0.145772 -3.932171 8.451008 -9.993640 -2.763262 39.222623 -71.044692 -54.388476 -0.520434 -6.301121 6.403033 -9.616368 1.643104 -1.225832 6.313426 -2.614845 -0.066251 -113.623672 -80.193367 116.019208 13.082784 -2.413847 -1.621383 7.435027 -46.155223 7.378773 -22.643223 84.436282 -11.027718 -3.860452 -0.740981 -0.897721 -0.026698 1.001977 -0.181843 -12.854643 -48.945450 18.373900 -154.857171 86.953645 -160.679616 1.405057 -8.013245 1.781488 -0.001663 -0.029560 -0.026821
-53.666643 48.679916 36.077884 170.936525 -36.151636 -5.363098 5.685269 18.581345 4.846585 0.602447 2.310841 0.493429 1.003229 3.759100 0.805292 4.781000 16.012695 4.014745 -0.738054 17.530901 0.902792 -1.635834 -3.159893 1.922151 0.906459 0.173642 -3.914377 8.446442 -10.016113 -2.775985 39.236557 -71.060347 -54.399282 -0.532944 -6.329240 6.408679 -9.629342 1.695435 -1.205345 6.353373 -2.598135 -0.052145 -113.995724 -80.248753 116.381771 13.109487 -2.469161 -1.782987 7.230675 -46.000752 7.479848 -22.156982 84.397732 -10.608630 -3.829465 -1.386192 -1.099586 -0.023858 1.197868 -0.075441 -12.816463 -49.031856 18.336695 -155.736085 86.952155 -161.544585 1.370224 -8.015937 1.786490 0.000865 -0.025068 -0.023845
-53.672185 48.665423 36.073053 170.925067 -36.086183 -5.322721 5.677086 18.589221 4.838909 0.602560 2.297460 0.486155 1.001484 3.773873 0.812592 4.774131 16.000617 4.004779 -0.730179 17.532470 0.897246 -1.625909 -3.157985 1.911126 0.911673 0.185920 -3.883725 8.445114 -10.060594 -2.833137 39.283959 -71.064965 -54.443568 -0.573416 -6.349239 6.402768 -9.637000 1.685486 -1.213390 6.390373 -2.573800 -0.026660 -114.283407 -80.280589 116.667672 13.126881 -2.513789 -1.954381 7.034210 -45.859312 7.564551 -21.319966 84.371445 -9.819837 -3.819377 -2.011093 -1.347194 -0.019316 1.343921 0.033436 -12.775454 -49.116566 18.294163 -156.524495 86.955178 -162.322208 1.337646 -8.016922 1.794144 0.000321 -0.020440 -0.021965
-53.676003 48.653005 36.067409 170.913483 -36.030997 -5.288426 5.673538 18.592863 4.830559 0.602107 2.298205 0.486195 1.000795 3.775011 0.812652 4.772422 16.060086 4.037853 -0.735105 17.474652 0.861005 -1.626232 -3.187080 1.892515 0.918643 0.106327 -3.912226 8.437687 -10.059501 -2.840571 39.348949 -71.096005 -54.508083 -0.592737 -6.356592 6.373705 -9.639510 1.610308 -1.246691 6.411608 -2.575135 -0.007296 -114.352987 -80.294480 116.747958 13.129557 -2.546952 -2.118028 6.849940 -45.721545 7.657372 -20.290523 84.350052 -8.814297 -3.825440 -2.612740 -1.648848 -0.015927 1.445987 0.152607 -12.732749 -49.193054 18.256340 -157.440917 86.952738 -163.225375 1.294472 -8.015631 1.803258 0.000642 -0.019324 -0.020433
-53.676218 48.644503 36.059944 170.907188 -35.999031 -5.272374 5.672342 18.590079 4.826906 0.602834 2.326203 0.498182 0.998967 3.762756 0.806642 4.770115 16.062630 4.038792 -0.721856 17.534311 0.884349 -1.634623 -3.263841 1.859483 0.925352 0.096317 -3.900350 8.438639 -10.030211 -2.831063 39.494171 -71.140996 -54.666179 -0.617815 -6.343860 6.324311 -9.636986 1.610892 -1.253349 6.422771 -2.588739 0.012579 -114.302011 -80.293903 116.711839 13.119041 -2.567214 -2.254407 6.657222 -45.584959 7.776408 -19.196076 84.333149 -7.735061 -3.845387 -3.141375 -1.951994 -0.012482 1.479970 0.247916 -12.733977 -49.236393 18.259272 -157.836475 86.938483 -163.627628 1.280878 -8.010105 1.807486 -0.004400 -0.024956 -0.017936
-53.674336 48.639049 36.053181 170.903464 -35.972449 -5.265408 5.672085 18.591385 4.830511 0.607091 2.354012 0.511167 0.993742 3.722338 0.787876 4.769279 16.063582 4.039586 -0.708344 17.599609 0.915488 -1.637540 -3.227090 1.854070 0.931981 0.117458 -3.874417 8.438219 -10.050642 -2.864120 39.283110 -71.242102 -54.404407 -0.565086 -6.320601 6.209862 -9.633887 1.618907 -1.254197 6.432672 -2.590334 0.037634 -114.141171 -80.277896 116.566415 13.099878 -2.574746 -2.352556 6.451410 -45.487138 7.917587 -18.158664 84.332305 -6.724911 -3.888962 -3.526652 -2.196965 -0.008002 1.411264 0.287416 -12.742517 -49.271095 18.270014 -158.046472 86.924714 -163.837972 1.272138 -8.000507 1.796638 -0.004336 -0.035653 -0.007498
-53.672512 48.635285 36.051499 170.902994 -35.918152 -5.258855 5.672362 18.590283 4.843735 0.607263 2.343340 0.506291 0.992997 3.737490 0.796681 4.766127 16.068819 4.047663 -0.713416 17.591992 0.902047 -1.643519 -3.177573 1.856574 0.932080 0.097542 -3.881463 8.444184 -10.050374 -2.871503 39.221740 -71.320854 -54.328448 -0.565285 -6.281934 6.115615 -9.635242 1.576379 -1.277353 6.437899 -2.598502 0.060001 -113.880829 -80.249623 116.326609 13.078255 -2.578524 -2.412578 6.350652 -45.488255 8.006045 -17.942599 84.349457 -6.504622 -3.905159 -3.756041 -2.352578 -0.010454 1.255727 0.285991 -12.793945 -49.325424 18.314028 -158.153813 86.918044 -163.969898 1.264107 -7.991371 1.790872 -0.004657 -0.042686 -0.001376
-53.669877 48.636806 36.054816 170.925372 -35.838062 -5.269680 5.655124 18.565754 4.858568 0.601905 2.303990 0.490108 1.012241 3.840248 0.848514 4.759065 16.068023 4.058921 -0.753541 17.496449 0.837686 -1.650378 -3.101527 1.872143 0.912653 0.006233 -3.939171 8.452657 -10.009053 -2.841285 39.189948 -71.426519 -54.292741 -0.564902 -6.238353 6.017509 -9.639626 1.555938 -1.295687 6.424173 -2.685883 0.041243 -113.548613 -80.214863 116.021378 13.109549 -2.601729 -2.450344 6.084202 -45.536762 8.197942 -17.697354 84.379915 -6.366655 -3.928217 -3.874132 -2.454727 -0.005182 1.059304 0.248778 -12.893554 -49.404501 18.383888 -158.202210 86.913815 -164.053174 1.258676 -7.979138 1.789201 -0.002556 -0.038807 0.000669
-53.663208 48.654433 36.054585 170.947515 -35.801414 -5.296632 5.653725 18.579243 4.898660 0.601671 2.306667 0.492005 1.008388 3.842334 0.851639 4.760605 16.090793 4.080428 -0.757768 17.547708 0.849684 -1.677098 -3.138206 1.843573 0.904149 -0.049206 -3.977791 8.452951 -9.975300 -2.818102 39.060931 -71.551958 -54.158156 -0.569703 -6.200250 5.938633 -9.648027 1.528067 -1.309992 6.417067 -2.725020 0.031943 -113.214944 -80.178485 115.720688 13.062983 -2.611916 -2.437899 5.856355 -45.573589 8.351709 -17.374995 84.444273 -6.097137 -3.940935 -3.979161 -2.559798 -0.002906 0.893881 0.212829 -13.069947 -49.395429 18.531312 -157.759365 86.922700 -163.704530 1.259811 -7.954335 1.780665 -0.001387 -0.051420 0.008540
-53.656026 48.689737 36.053222 170.962449 -35.785338 -5.318890 5.656511 18.610060 4.938555 0.601326 2.309227 0.493715 1.006332 3.847465 0.857554 4.756091 16.098459 4.088436 -0.764983 17.572398 0.853501 -1.695768 -3.144133 1.829389 0.918893 -0.060792 -3.999006 8.434727 -9.965356 -2.807676 38.856750 -71.703284 -53.954719 -0.579060 -6.173068 5.895901 -9.655743 1.519824 -1.314934 6.403703 -2.758275 0.013229 -112.941500 -80.141613 115.492280 13.020772 -2.622338 -2.407129 5.766482 -45.630829 8.410632 -17.574803 84.520979 -6.264481 -3.922225 -4.050605 -2.659723 -0.005957 0.753508 0.196088 -13.156181 -49.367353 18.605342 -157.375343 86.946116 -163.363202 1.263431 -7.940976 1.760654 -0.003625 -0.057876 0.022064
-53.650989 48.740407 36.056755 170.982987 -35.739696 -5.335501 5.645427 18.614449 4.968494 0.600956 2.311935 0.495137 1.007717 3.850725 0.861344 4.743634 16.076982 4.073283 -0.765150 17.603523 0.869408 -1.707493 -3.170710 1.809703 0.940088 -0.011434 -3.981269 8.417170 -9.991598 -2.829122 38.558559 -71.878204 -53.659859 -0.592431 -6.158385 5.890507 -9.662198 1.545695 -1.302627 6.379722 -2.783421 -0.014833 -112.750679 -80.104533 115.358929 13.018586 -2.637764 -2.398800 5.730482 -45.773477 8.398888 -17.889603 84.646096 -6.517096 -3.903886 -4.054448 -2.704589 -0.008582 0.594809 0.151124 -13.227899 -49.350095 18.658918 -156.844441 87.001073 -162.871263 1.261040 -7.909537 1.756813 0.002709 -0.073797 0.021340
